<svg xmlns="http://www.w3.org/2000/svg" xmlns:xlink="http://www.w3.org/1999/xlink" style="isolation:isolate" viewBox="0 0 375 375" width="375pt" height="375pt"><defs><clipPath id="_clipPath_pvWrIoP8qsLQwkOEBjUZXiKdHzMGt1U5"><path d="M0 0h375v375H0z"/></clipPath></defs><g clip-path="url(#_clipPath_pvWrIoP8qsLQwkOEBjUZXiKdHzMGt1U5)"><path d="M0 0h375v375H0z" style="fill:#000" fill-opacity="0"/><g><path d="M187.5 103.258C203.485 103.258 216.462 116.235 216.462 132.22 216.462 148.205 203.485 161.182 187.5 161.182" fill="none" vector-effect="non-scaling-stroke" stroke-width="5" stroke="rgb(243,166,122)" stroke-linejoin="round" stroke-linecap="round" stroke-miterlimit="3"/><path d="M187.5 199.327C198.026 199.327 206.572 207.873 206.572 218.399 206.572 228.926 198.026 237.472 187.5 237.472" fill="none" vector-effect="non-scaling-stroke" stroke-width="5" stroke="rgb(243,166,122)" stroke-linejoin="round" stroke-linecap="round" stroke-miterlimit="3"/><path d="M187.5 161.182C198.026 161.182 206.572 169.728 206.572 180.254 206.572 190.781 198.026 199.327 187.5 199.327" fill="none" vector-effect="non-scaling-stroke" stroke-width="5" stroke="rgb(243,166,122)" stroke-linejoin="round" stroke-linecap="round" stroke-miterlimit="3"/><path d="M187.5 237.472C198.026 237.472 212.285 244.546 215.049 256.544 223.349 292.57 198.026 337.602 187.5 337.602" fill="none" vector-effect="non-scaling-stroke" stroke-width="5" stroke="rgb(243,166,122)" stroke-linejoin="round" stroke-linecap="round" stroke-miterlimit="3"/><path d="M205.16 108.909C244.717 65.82 249.397 63.7 253.194 55.224Q256.991 46.747 261.671 15.666" fill="none" vector-effect="non-scaling-stroke" stroke-width="5" stroke="rgb(243,166,122)" stroke-linejoin="round" stroke-linecap="round" stroke-miterlimit="3"/><path d="M277.211 75.003Q277.686 83.336 277.211 89.13C276.737 94.925 248.471 108.008 240.479 124.45 232.487 140.891 242.936 152.698 233.415 164.007Q223.895 175.317 206.572 178.135" fill="none" vector-effect="non-scaling-stroke" stroke-width="5" stroke="rgb(243,166,122)" stroke-linejoin="round" stroke-linecap="round" stroke-miterlimit="3"/><path d="M296.99 279.855Q297.167 271.025 294.165 265.727C291.162 260.429 255.402 258.134 250.369 233.234 245.336 208.333 216.72 201.86 192.445 199.327" fill="none" vector-effect="non-scaling-stroke" stroke-width="5" stroke="rgb(243,166,122)" stroke-linejoin="round" stroke-linecap="round" stroke-miterlimit="3"/><path d="M192.445 237.472Q223.997 232.292 237.654 247.361C251.31 262.431 228.117 349.125 237.654 356.145Q247.19 363.165 253.194 354.732" fill="none" vector-effect="non-scaling-stroke" stroke-width="5" stroke="rgb(243,166,122)" stroke-linejoin="round" stroke-linecap="round" stroke-miterlimit="3"/><path d="M187.5 103.258C171.515 103.258 158.538 116.235 158.538 132.22 158.538 148.205 171.515 161.182 187.5 161.182" fill="none" vector-effect="non-scaling-stroke" stroke-width="5" stroke="rgb(243,166,122)" stroke-linejoin="round" stroke-linecap="round" stroke-miterlimit="3"/><path d="M187.5 199.327C176.974 199.327 168.428 207.873 168.428 218.399 168.428 228.926 176.974 237.472 187.5 237.472" fill="none" vector-effect="non-scaling-stroke" stroke-width="5" stroke="rgb(243,166,122)" stroke-linejoin="round" stroke-linecap="round" stroke-miterlimit="3"/><path d="M187.5 161.182C176.974 161.182 168.428 169.728 168.428 180.254 168.428 190.781 176.974 199.327 187.5 199.327" fill="none" vector-effect="non-scaling-stroke" stroke-width="5" stroke="rgb(243,166,122)" stroke-linejoin="round" stroke-linecap="round" stroke-miterlimit="3"/><path d="M187.5 237.472C176.974 237.472 162.715 244.546 159.951 256.544 151.651 292.57 176.974 337.602 187.5 337.602" fill="none" vector-effect="non-scaling-stroke" stroke-width="5" stroke="rgb(243,166,122)" stroke-linejoin="round" stroke-linecap="round" stroke-miterlimit="3"/><path d="M169.84 108.909C130.283 65.82 125.603 63.7 121.806 55.224Q118.009 46.747 113.329 15.666" fill="none" vector-effect="non-scaling-stroke" stroke-width="5" stroke="rgb(243,166,122)" stroke-linejoin="round" stroke-linecap="round" stroke-miterlimit="3"/><path d="M97.789 75.003Q97.314 83.336 97.789 89.13C98.263 94.925 126.529 108.008 134.521 124.45 142.513 140.891 132.064 152.698 141.585 164.007Q151.105 175.317 168.428 178.135" fill="none" vector-effect="non-scaling-stroke" stroke-width="5" stroke="rgb(243,166,122)" stroke-linejoin="round" stroke-linecap="round" stroke-miterlimit="3"/><path d="M78.01 279.855Q77.833 271.025 80.835 265.727C83.838 260.429 119.598 258.134 124.631 233.234 129.664 208.333 158.28 201.86 182.555 199.327" fill="none" vector-effect="non-scaling-stroke" stroke-width="5" stroke="rgb(243,166,122)" stroke-linejoin="round" stroke-linecap="round" stroke-miterlimit="3"/><path d="M182.555 237.472Q151.003 232.292 137.346 247.361C123.69 262.431 146.883 349.125 137.346 356.145Q127.81 363.165 121.806 354.732" fill="none" vector-effect="non-scaling-stroke" stroke-width="5" stroke="rgb(243,166,122)" stroke-linejoin="round" stroke-linecap="round" stroke-miterlimit="3"/></g><path d="M15-50H35C43.279-50 50-43.279 50-35V0H0V-35C0-43.279 6.721-50 15-50z" style="stroke:none;fill:#a66742;stroke-miterlimit:10"/><path d="M80-50h20C108.279-50 115-43.279 115-35V0H65V-35C65-43.279 71.721-50 80-50z" style="stroke:none;fill:#ffbe99;stroke-miterlimit:10"/><path d="M145-50h20C173.279-50 180-43.279 180-35V0H130V-35C130-43.279 136.721-50 145-50z" style="stroke:none;fill:#f3a67a;stroke-miterlimit:10"/><path d="M210-50h20C238.279-50 245-43.279 245-35V0H195V-35C195-43.279 201.721-50 210-50z" style="stroke:none;fill:#32a6a5;stroke-miterlimit:10"/><path d="M275-50h20C303.279-50 310-43.279 310-35V0H260V-35C260-43.279 266.721-50 275-50z" style="stroke:none;fill:#79f2f2;stroke-miterlimit:10"/><path d="M340-50h20C368.279-50 375-43.279 375-35V0H325V-35C325-43.279 331.721-50 340-50z" style="stroke:none;fill:#4f4ba6;stroke-miterlimit:10"/></g></svg>