<svg xmlns="http://www.w3.org/2000/svg" xmlns:xlink="http://www.w3.org/1999/xlink" style="enable-background:new 0 0 32 32" viewBox="0 0 32 32" ><defs><clipPath id="_clipPath_ZJrVcjF9mFQznnxUEqBkS3taHQoldRXt"><path d="M0 0h32v32H0z"/></clipPath></defs><g clip-path="url(#_clipPath_ZJrVcjF9mFQznnxUEqBkS3taHQoldRXt)"><path d="M0 0h32v32H0z" style="fill:#000" fill-opacity="0"/><g><path d="M29.756 24.025C29.745 24.023 29.734 24.021 29.723 24.02L25.229 23.377C25.211 23.374 25.193 23.372 25.175 23.371 24.485 23.332 23.787 23.341 23.099 23.397 23.09 23.397 23.08 23.398 23.07 23.4L13.374 24.637C12.15 24.715 11.182 25.67 11.053 26.854L3.228 24.443C1.914 24.038.515 24.777.111 26.091-.294 27.405.446 28.803 1.759 29.208 1.762 29.209 1.764 29.209 1.766 29.21L9.183 31.407C10.515 31.802 11.878 32 13.252 32 13.8 32 14.351 31.968 14.901 31.905L24.536 30.8C24.545 30.799 24.554 30.797 24.563 30.796 25.068 30.716 25.581 30.716 26.086 30.797L29.098 31.279C29.235 31.3 29.37 31.311 29.504 31.311 30.723 31.311 31.796 30.436 31.992 29.21 31.997 29.177 32 29.143 32 29.11V26.506C32 25.267 31.119 24.293 29.756 24.025zM30.725 29.054v0C30.598 29.685 29.956 30.125 29.3 30.02L26.287 29.538C25.654 29.436 25.011 29.435 24.377 29.535L14.756 30.639C12.996 30.841 11.243 30.688 9.545 30.185L2.132 27.989C1.492 27.79 1.132 27.108 1.329 26.466 1.425 26.156 1.636 25.9 1.924 25.748 2.212 25.596 2.541 25.565 2.852 25.661L11.336 28.275C11.759 29.055 12.584 29.581 13.527 29.581 13.572 29.581 13.617 29.58 13.662 29.577 13.677 29.576 13.693 29.575 13.708 29.573L17.605 29.077C17.955 29.033 18.202 28.714 18.157 28.365 18.113 28.015 17.793 27.768 17.445 27.813L13.573 28.305C12.92 28.329 12.369 27.833 12.316 27.188 12.281 26.518 12.797 25.944 13.467 25.908 13.483 25.908 13.498 25.906 13.514 25.904L23.217 24.666C23.833 24.617 24.459 24.609 25.076 24.642L29.525 25.279C30.277 25.432 30.725 25.89 30.725 26.506V29.054v0z" fill="rgb(79,75,166)"/><path d="M20.043 27.482 19.177 27.593C18.827 27.637 18.58 27.956 18.625 28.305 18.666 28.627 18.94 28.863 19.256 28.863 19.283 28.863 19.31 28.861 19.337 28.857L20.203 28.747C20.553 28.703 20.8 28.384 20.755 28.034 20.711 27.685 20.392 27.438 20.043 27.482z" fill="rgb(79,75,166)"/><path d="M13.658 8.47v0L13.101 8.619 16.098 10.349 15.837 10.801 12.842 9.072 12.987 9.614C12.997 9.638 13.002 9.663 13.002 9.69 13.002 9.803 12.91 9.895 12.798 9.895 12.7 9.895 12.618 9.825 12.598 9.733v0 0L12.344 8.785Q12.297 8.598 12.344 8.5 12.391 8.402 12.562 8.344L13.553 8.079 13.554 8.083C13.575 8.075 13.599 8.07 13.623 8.07 13.734 8.07 13.824 8.16 13.824 8.271 13.824 8.371 13.752 8.453 13.658 8.47v0zM10.217 3.059C12.876 3.059 15.333 5.645 15.333 5.645 15.793 6.147 16.24 6.15 16.667 5.645 16.667 5.645 19.124 3.059 21.783 3.059 24.49 3.059 26.676 5.28 26.676 7.952 26.676 9.325 25.008 11.177 25.008 11.177L16 20.185 6.992 11.177C6.992 11.177 6.562 10.764 6.13 10.12 5.7 9.479 5.324 8.641 5.324 7.952 5.324 5.28 7.51 3.059 10.217 3.059v0 0 0zM10.217 1.28C6.537 1.28 3.545 4.307 3.545 7.952 3.545 9.225 4.121 10.326 4.657 11.122 4.973 11.594 5.336 12.031 5.741 12.428L15.359 22.075Q15.758 22.475 16.022 22.474 16.285 22.474 16.639 22.075L26.258 12.428C26.258 12.428 28.455 10.492 28.455 7.952 28.455 4.307 25.463 1.28 21.783 1.28 18.728 1.28 16.761 3.118 16 3.894 15.239 3.118 13.272 1.28 10.217 1.28v0 0 0z" fill-rule="evenodd" fill="rgb(79,75,166)"/><circle vector-effect="non-scaling-stroke" cx="16.000000155397487" cy="10.58881401702395" r=".5333333385270578" fill="rgb(79,75,166)"/><path d="M15.802 17.544 18.821 14.525C19.029 14.317 19.367 14.317 19.575 14.525v0C19.783 14.733 19.783 15.071 19.575 15.279L16.557 18.298C16.348 18.506 16.01 18.506 15.802 18.298v0C15.594 18.09 15.594 17.752 15.802 17.544z" style="stroke:none;fill:#4f4ba6;stroke-miterlimit:10"/><path d="M20.315 12.94 20.671 12.584C20.879 12.376 21.217 12.376 21.425 12.584v0C21.633 12.792 21.633 13.13 21.425 13.338L21.069 13.694C20.861 13.902 20.523 13.902 20.315 13.694v0C20.107 13.486 20.107 13.148 20.315 12.94z" style="stroke:none;fill:#4f4ba6;stroke-miterlimit:10"/></g><path d="M22.454 7.832H22.456L22.691 6.805Q22.727 6.617 22.652 6.48 22.578 6.344 22.339 6.309L21.372 6.088C21.352 6.082 21.33 6.078 21.307 6.078 21.184 6.078 21.084 6.178 21.084 6.301 21.084 6.423 21.183 6.523 21.306 6.523L21.763 6.628 15.699 10.431 16.031 10.96 22.173 7.109 22.029 7.735H22.03C22.022 7.758 22.018 7.783 22.018 7.809 22.018 7.929 22.116 8.027 22.236 8.027 22.349 8.027 22.442 7.942 22.454 7.832z" fill="rgb(79,75,166)"/></g></svg>