<svg xmlns="http://www.w3.org/2000/svg" xmlns:xlink="http://www.w3.org/1999/xlink" style="enable-background:new 0 0 32 32" viewBox="0 0 32 32" ><defs><clipPath id="_clipPath_e3c67LCiwUsdyNmgsLdQxzd3IBYJRsOH"><path d="M0 0h32v32H0z"/></clipPath></defs><g clip-path="url(#_clipPath_e3c67LCiwUsdyNmgsLdQxzd3IBYJRsOH)"><path d="M0 0h32v32H0z" style="fill:#000" fill-opacity="0"/><g><path d="M29.756 24.025C29.745 24.023 29.734 24.021 29.723 24.02L25.229 23.377C25.211 23.374 25.193 23.372 25.175 23.371 24.485 23.332 23.787 23.341 23.099 23.397 23.09 23.397 23.08 23.398 23.07 23.4L13.374 24.637C12.15 24.715 11.182 25.67 11.053 26.854L3.228 24.443C1.914 24.038.515 24.777.111 26.091-.294 27.405.446 28.803 1.759 29.208 1.762 29.209 1.764 29.209 1.766 29.21L9.183 31.407C10.515 31.802 11.878 32 13.252 32 13.8 32 14.351 31.968 14.901 31.905L24.536 30.8C24.545 30.799 24.554 30.797 24.563 30.796 25.068 30.716 25.581 30.716 26.086 30.797L29.098 31.279C29.235 31.3 29.37 31.311 29.504 31.311 30.723 31.311 31.796 30.436 31.992 29.21 31.997 29.177 32 29.143 32 29.11V26.506C32 25.267 31.119 24.293 29.756 24.025zM30.725 29.054v0C30.598 29.685 29.956 30.125 29.3 30.02L26.287 29.538C25.654 29.436 25.011 29.435 24.377 29.535L14.756 30.639C12.996 30.841 11.243 30.688 9.545 30.185L2.132 27.989C1.492 27.79 1.132 27.108 1.329 26.466 1.425 26.156 1.636 25.9 1.924 25.748 2.212 25.596 2.541 25.565 2.852 25.661L11.336 28.275C11.759 29.055 12.584 29.581 13.527 29.581 13.572 29.581 13.617 29.58 13.662 29.577 13.677 29.576 13.693 29.575 13.708 29.573L17.605 29.077C17.955 29.033 18.202 28.714 18.157 28.365 18.113 28.015 17.793 27.768 17.445 27.813L13.573 28.305C12.92 28.329 12.369 27.833 12.316 27.188 12.281 26.518 12.797 25.944 13.467 25.908 13.483 25.908 13.498 25.906 13.514 25.904L23.217 24.666C23.833 24.617 24.459 24.609 25.076 24.642L29.525 25.279C30.277 25.432 30.725 25.89 30.725 26.506V29.054v0z" fill="rgb(79,75,166)"/><path d="M20.043 27.482 19.177 27.593C18.827 27.637 18.58 27.956 18.625 28.305 18.666 28.627 18.94 28.863 19.256 28.863 19.283 28.863 19.31 28.861 19.337 28.857L20.203 28.747C20.553 28.703 20.8 28.384 20.755 28.034 20.711 27.685 20.392 27.438 20.043 27.482z" fill="rgb(79,75,166)"/><path d="M10.217 1.28C6.537 1.28 3.545 4.307 3.545 7.952 3.545 9.225 4.121 10.326 4.657 11.122 4.973 11.594 5.336 12.031 5.741 12.428L15.359 22.075Q15.758 22.475 16.022 22.474 16.285 22.474 16.639 22.075L26.258 12.428C26.258 12.428 28.455 10.492 28.455 7.952 28.455 4.307 25.463 1.28 21.783 1.28 18.728 1.28 16.761 3.118 16 3.894 15.239 3.118 13.272 1.28 10.217 1.28zM10.217 3.059C12.876 3.059 15.333 5.645 15.333 5.645 15.793 6.147 16.24 6.15 16.667 5.645 16.667 5.645 19.124 3.059 21.783 3.059 24.49 3.059 26.676 5.28 26.676 7.952 26.676 9.325 25.008 11.177 25.008 11.177L16 20.185 6.992 11.177C6.992 11.177 6.562 10.764 6.13 10.12 5.7 9.479 5.324 8.641 5.324 7.952 5.324 5.28 7.51 3.059 10.217 3.059z" fill="rgb(79,75,166)"/><path d="M12.418 10.733C12.418 8.545 14.194 6.77 16.381 6.77 18.568 6.77 20.343 8.545 20.343 10.733 20.343 12.92 18.568 14.695 16.381 14.695 14.194 14.695 12.418 12.92 12.418 10.733zM13.111 10.733C13.111 8.928 14.576 7.463 16.381 7.463 18.185 7.463 19.65 8.928 19.65 10.733 19.65 12.537 18.185 14.002 16.381 14.002 14.576 14.002 13.111 12.537 13.111 10.733z" fill-rule="evenodd" fill="rgb(79,75,166)"/><path d="M16.129 8.089V8.618C15.732 8.671 15.046 8.986 15.046 9.832 15.046 11.365 17.269 10.578 17.269 11.74 17.269 12.137 17.082 12.476 16.368 12.476 15.628 12.476 15.418 11.892 15.418 11.575H14.939C15.018 12.606 15.732 12.851 16.129 12.93V13.376H16.608V12.93C16.978 12.903 17.822 12.635 17.822 11.683 17.822 10.89 17.184 10.677 16.55 10.518 16.048 10.385 15.575 10.284 15.575 9.783 15.575 9.571 15.655 9.097 16.368 9.097 16.87 9.097 17.107 9.413 17.186 9.782H17.665C17.533 9.254 17.296 8.775 16.608 8.643V8.089H16.129z" fill="rgb(79,75,166)" vector-effect="non-scaling-stroke" stroke-width=".25" stroke="rgb(79,75,166)" stroke-linejoin="round" stroke-linecap="round" stroke-miterlimit="3"/><path d="M15.667 17.897 17.757 15.807C17.901 15.663 18.135 15.663 18.279 15.807v0C18.424 15.951 18.424 16.185 18.279 16.329L16.189 18.42C16.045 18.564 15.811 18.564 15.667 18.42v0C15.523 18.275 15.523 18.041 15.667 17.897z" style="stroke:none;fill:#4f4ba6;stroke-miterlimit:10"/><path d="M18.792 14.709 19.038 14.463C19.182 14.318 19.416 14.318 19.561 14.463v0C19.705 14.607 19.705 14.841 19.561 14.985L19.314 15.231C19.17 15.375 18.936 15.375 18.792 15.231v0C18.648 15.087 18.648 14.853 18.792 14.709z" style="stroke:none;fill:#4f4ba6;stroke-miterlimit:10"/></g></g></svg>