<svg xmlns="http://www.w3.org/2000/svg" xmlns:xlink="http://www.w3.org/1999/xlink" style="enable-background:new 0 0 32 32" viewBox="0 2.02 32 29.98"><defs><clipPath id="_clipPath_1ShVjwk1DoL7ZTmAx6wAiaB5ciYPKu8g"><path d="M0 2.02h32V32H0z"/></clipPath></defs><g clip-path="url(#_clipPath_1ShVjwk1DoL7ZTmAx6wAiaB5ciYPKu8g)"><path d="M0 2.02h32V32H0z" style="fill:#000" fill-opacity="0"/><path d="M29.756 24.025C29.745 24.023 29.734 24.021 29.723 24.02L25.229 23.377C25.211 23.374 25.193 23.372 25.175 23.371 24.485 23.332 23.787 23.341 23.099 23.397 23.09 23.397 23.08 23.398 23.07 23.4L13.374 24.637C12.15 24.715 11.182 25.67 11.053 26.854L3.228 24.443C1.914 24.038.515 24.777.111 26.091-.294 27.405.446 28.803 1.759 29.208 1.762 29.209 1.764 29.209 1.766 29.21L9.183 31.407C10.515 31.802 11.878 32 13.252 32 13.8 32 14.351 31.968 14.901 31.905L24.536 30.8C24.545 30.799 24.554 30.797 24.563 30.796 25.068 30.716 25.581 30.716 26.086 30.797L29.098 31.279C29.235 31.3 29.37 31.311 29.504 31.311 30.723 31.311 31.796 30.436 31.992 29.21 31.997 29.177 32 29.143 32 29.11V26.506C32 25.267 31.119 24.293 29.756 24.025zM30.725 29.054v0C30.598 29.685 29.956 30.125 29.3 30.02L26.287 29.538C25.654 29.436 25.011 29.435 24.377 29.535L14.756 30.639C12.996 30.841 11.243 30.688 9.545 30.185L2.132 27.989C1.492 27.79 1.132 27.108 1.329 26.466 1.425 26.156 1.636 25.9 1.924 25.748 2.212 25.596 2.541 25.565 2.852 25.661L11.336 28.275C11.759 29.055 12.584 29.581 13.527 29.581 13.572 29.581 13.617 29.58 13.662 29.577 13.677 29.576 13.693 29.575 13.708 29.573L17.605 29.077C17.955 29.033 18.202 28.714 18.157 28.365 18.113 28.015 17.793 27.768 17.445 27.813L13.573 28.305C12.92 28.329 12.369 27.833 12.316 27.188 12.281 26.518 12.797 25.944 13.467 25.908 13.483 25.908 13.498 25.906 13.514 25.904L23.217 24.666C23.833 24.617 24.459 24.609 25.076 24.642L29.525 25.279C30.277 25.432 30.725 25.89 30.725 26.506V29.054v0z" fill="rgb(79,75,166)"/><path d="M21.07 17.56 21.15 17.55C21.16 17.55 21.16 17.55 21.16 17.55 22.13 17.55 23.03 18.05 23.55 18.86 23.81 18.77 24.09 18.72 24.36 18.71 24.37 18.71 24.37 18.71 24.37 18.71H24.44C24.45 18.71 24.45 18.71 24.45 18.71 25.14 18.71 25.8 18.98 26.3 19.46 26.79 19.94 27.08 20.59 27.1 21.28c0 0 0 0 0 .00999999999999801L27.11 21.36c0 0 0 0 0 .010000000000001563C27.11 21.47 27.1 21.57 27.09 21.68 28.03 22.08 28.65 22.99 28.69 24.02 28.7 24.13 28.65 24.24 28.57 24.31 28.49 24.38 28.37 24.42 28.26 24.4L25.18 23.96H25.15L24.32 23.94C23.92 23.94 23.53 23.95 23.13 23.98L23.11 23.99 13.42 25.22C13.41 25.22 13.41 25.22 13.4 25.22 12.9 25.26 12.43 25.46 12.07 25.81 11.71 26.15 11.48 26.61 11.43 27.11 11.41 27.22 11.35 27.32 11.26 27.38 11.17 27.44 11.05 27.46 10.94 27.43L4.25 25.36C4.18 25.34 4.11 25.3 4.07 25.23 3.6 24.62 3.33 23.87 3.31 23.1c0 0 0 0 0-.010000000000001563V22.99C3.31 22.98 3.31 22.98 3.31 22.98 3.31 22.1 3.62 21.24 4.19 20.57 4.77 19.9 5.56 19.45 6.43 19.31 6.93 18.49 7.81 17.98 8.77 17.95c0 0 0 0 .009999999999999787.0H8.88L9.04 17.96C10.05 15.67 12.3 14.15 14.8 14.07 14.8 14.07 14.81 14.07 14.81 14.07H15.01c0 0 0 0 0 0C17.44 14.07 19.67 15.43 20.79 17.58 20.88 17.57 20.98 17.56 21.07 17.56c0 0 0 0 0 0zM4.06 23.08V22.98C4.06 22.21 4.35 21.47 4.89 20.92 5.42 20.37 6.15 20.04 6.91 20.02 7.22 19.24 7.96 18.72 8.79 18.7H8.85L9.25 18.73C9.42 18.75 9.57 18.65 9.63 18.5 10.47 16.35 12.52 14.9 14.82 14.82H15.02C16.17 14.82 17.3 15.17 18.25 15.82 19.21 16.47 19.95 17.39 20.37 18.46 20.6 18.37 20.84 18.31 21.09 18.31L21.16 18.3C21.63 18.3 22.09 18.46 22.46 18.76 22.83 19.05 23.09 19.46 23.2 19.92 23.53 19.64 23.95 19.47 24.38 19.46H24.45C24.95 19.46 25.42 19.65 25.78 19.99 26.13 20.34 26.34 20.81 26.36 21.3V21.37C26.36 21.66 26.29 21.95 26.15 22.21 26.96 22.26 27.65 22.81 27.87 23.59L25.27 23.22 25.2 23.21 24.33 23.19c0 0 0 0-.00999999999999801.0C23.91 23.19 23.49 23.2 23.07 23.24 23.07 23.24 23.06 23.24 23.06 23.24H23.03L13.34 24.48C12.12 24.56 11.08 25.41 10.76 26.59L4.59 24.68C4.26 24.21 4.08 23.65 4.06 23.08z" fill-rule="evenodd" fill="rgb(79,75,166)"/><path d="M3 15.66C3 15.3 3.14 14.96 3.39 14.7 3.65 14.45 3.99 14.31 4.35 14.31 4.71 14.31 5.05 14.45 5.31 14.7 5.56 14.96 5.71 15.3 5.71 15.66 5.71 16.02 5.56 16.37 5.31 16.62 5.05 16.88 4.71 17.02 4.35 17.02 3.99 17.02 3.65 16.88 3.39 16.62 3.14 16.37 3 16.02 3 15.66zm.75.0C3.75 15.5 3.81 15.35 3.92 15.24 4.04 15.12 4.19 15.06 4.35 15.06 4.51 15.06 4.66 15.12 4.78 15.24 4.89 15.35 4.96 15.5 4.96 15.66 4.96 15.82 4.89 15.98 4.78 16.09 4.66 16.2 4.51 16.27 4.35 16.27 4.19 16.27 4.04 16.2 3.92 16.09 3.81 15.98 3.75 15.82 3.75 15.66z" fill-rule="evenodd" fill="rgb(79,75,166)"/><path d="M27.64 17.69C27.84 17.57 28.07 17.5 28.31 17.5 28.8 17.5 29.24 17.76 29.49 18.18 29.61 18.39 29.67 18.62 29.67 18.86 29.67 19.34 29.41 19.79 28.99 20.03 28.79 20.15 28.55 20.21 28.32 20.21 27.83 20.21 27.38 19.96 27.14 19.54 27.02 19.33 26.96 19.1 26.96 18.86 26.96 18.38 27.22 17.93 27.64 17.69zM28.01 18.33C28.1 18.28 28.21 18.25 28.31 18.25 28.53 18.25 28.73 18.37 28.84 18.56 28.89 18.65 28.92 18.75 28.92 18.86 28.92 19.07 28.8 19.27 28.62 19.38 28.52 19.44 28.42 19.46 28.31 19.46 28.1 19.46 27.9 19.35 27.79 19.16 27.74 19.07 27.71 18.97 27.71 18.86 27.71 18.64 27.82 18.44 28.01 18.33z" fill-rule="evenodd" fill="rgb(79,75,166)"/><path d="M3.63 9.01C3.63 8.72 3.74 8.45 3.94 8.25 4.15 8.04 4.42 7.93 4.71 7.93 5 7.93 5.27 8.04 5.48 8.25 5.68 8.45 5.79 8.72 5.79 9.01 5.79 9.3 5.68 9.57 5.48 9.78 5.27 9.98 5 10.1 4.71 10.1 4.42 10.1 4.15 9.98 3.94 9.78 3.74 9.57 3.63 9.3 3.63 9.01zm.75.0C4.38 8.92 4.41 8.84 4.47 8.78 4.54 8.71 4.62 8.68 4.71 8.68 4.8 8.68 4.88 8.71 4.95 8.78 5.01 8.84 5.04 8.92 5.04 9.01 5.04 9.1 5.01 9.19 4.95 9.25 4.88 9.31 4.8 9.35 4.71 9.35 4.62 9.35 4.54 9.31 4.47 9.25 4.41 9.19 4.38 9.1 4.38 9.01z" fill-rule="evenodd" fill="rgb(79,75,166)"/><path d="M21.24 13.34C21.24 12.95 21.4 12.57 21.68 12.3 21.95 12.02 22.33 11.86 22.72 11.86 23.11 11.86 23.49 12.02 23.77 12.3 24.05 12.57 24.2 12.95 24.2 13.34 24.2 13.73 24.05 14.11 23.77 14.39 23.49 14.67 23.11 14.82 22.72 14.82 22.33 14.82 21.95 14.67 21.68 14.39 21.4 14.11 21.24 13.73 21.24 13.34zm.75.0C21.99 13.15 22.07 12.96 22.21 12.83 22.34 12.69 22.53 12.61 22.72 12.61 22.92 12.61 23.1 12.69 23.24 12.83 23.37 12.96 23.45 13.15 23.45 13.34 23.45 13.54 23.37 13.72 23.24 13.86 23.1 13.99 22.92 14.07 22.72 14.07 22.53 14.07 22.34 13.99 22.21 13.86 22.07 13.72 21.99 13.54 21.99 13.34z" fill-rule="evenodd" fill="rgb(79,75,166)"/><path d="M28.92 10.8C28.92 10.51 29.04 10.24 29.24 10.03 29.45 9.83 29.72 9.71 30.01 9.71 30.3 9.71 30.58 9.83 30.78 10.03 30.99 10.24 31.1 10.51 31.1 10.8 31.1 11.09 30.99 11.37 30.78 11.57 30.58 11.77 30.3 11.89 30.01 11.89 29.72 11.89 29.45 11.77 29.24 11.57 29.04 11.37 28.92 11.09 28.92 10.8zm.75.0C29.67 10.71 29.71 10.62 29.77 10.56 29.84 10.5 29.92 10.46 30.01 10.46 30.1 10.46 30.19 10.5 30.25 10.56 30.31 10.62 30.35 10.71 30.35 10.8 30.35 10.89 30.31 10.98 30.25 11.04 30.19 11.1 30.1 11.14 30.01 11.14 29.92 11.14 29.84 11.1 29.77 11.04 29.71 10.98 29.67 10.89 29.67 10.8z" fill-rule="evenodd" fill="rgb(79,75,166)"/><path d="M4.35 15.06C4.19 15.06 4.04 15.12 3.92 15.23 3.81 15.35 3.75 15.5 3.75 15.66 3.74 15.74 3.76 15.81 3.79 15.88 3.83 15.99 3.82 16.12 3.76 16.22 3.69 16.33 3.58 16.39 3.45 16.4H3.38C3.38 16.4 3.37 16.4 3.37 16.4 2.92 16.4 2.48 16.22 2.16 15.9 1.84 15.57 1.66 15.14 1.66 14.68 1.66 14.23 1.84 13.79 2.16 13.47 2.48 13.15 2.92 12.97 3.37 12.97 3.83 12.97 4.26 13.15 4.58 13.47 4.9 13.79 5.09 14.23 5.09 14.68v0L5.08 14.77C5.08 14.89 5.01 15 4.91 15.07 4.81 15.14 4.68 15.15 4.56 15.1 4.5 15.07 4.42 15.06 4.35 15.06zM4.26 14.31C3.93 14.33 3.62 14.47 3.39 14.7 3.16 14.94 3.02 15.25 3 15.57 2.64 15.42 2.41 15.07 2.41 14.68 2.41 14.43 2.51 14.18 2.69 14 2.87 13.82 3.11 13.72 3.37 13.72 3.76 13.72 4.11 13.95 4.26 14.31z" fill-rule="evenodd" fill="rgb(79,75,166)"/><path d="M28.84 18.56C28.73 18.37 28.53 18.25 28.31 18.25 28.21 18.25 28.1 18.28 28.01 18.34 27.95 18.37 27.89 18.42 27.85 18.48 27.77 18.58 27.65 18.63 27.53 18.62 27.41 18.62 27.3 18.55 27.23 18.45L27.19 18.39C27.19 18.38 27.19 18.38 27.19 18.38 27.04 18.12 26.96 17.82 26.96 17.52 26.96 16.91 27.28 16.34 27.81 16.03 28.07 15.88 28.37 15.81 28.67 15.81 29.28 15.8 29.85 16.13 30.16 16.66 30.31 16.92 30.39 17.22 30.39 17.52 30.39 18.13 30.06 18.7 29.53 19.01 29.53 19.01 29.52 19.01 29.52 19.01L29.46 19.04C29.35 19.1 29.22 19.1 29.11 19.05 29 18.99 28.92 18.88 28.91 18.76 28.9 18.69 28.88 18.62 28.84 18.56zM29.44 18.1C29.19 17.73 28.76 17.5 28.31 17.5 28.11 17.5 27.9 17.55 27.72 17.64 27.71 17.6 27.71 17.56 27.71 17.52 27.71 17.18 27.89 16.86 28.19 16.68 28.34 16.6 28.5 16.56 28.67 16.56 29.02 16.55 29.34 16.74 29.51 17.04 29.59 17.18 29.64 17.35 29.64 17.52 29.64 17.73 29.57 17.94 29.44 18.1z" fill-rule="evenodd" fill="rgb(79,75,166)"/><path d="M11.14 9.31C11.14 9.13 11.16 8.95 11.19 8.77 11.24 8.53 11.3 8.29 11.37 8.06 11.43 7.88 11.5 7.71 11.57 7.53 11.66 7.31 11.76 7.1 11.86 6.89 12.14 6.29 12.46 5.71 12.8 5.15 13.46 4.08 14.16 3.04 14.9 2.02 15.47 2.8 16.01 3.6 16.53 4.41 16.84 4.88 17.13 5.36 17.4 5.85 17.57 6.15 17.74 6.46 17.89 6.77 18.01 7.01 18.12 7.26 18.22 7.51 18.37 7.85 18.48 8.21 18.57 8.58 18.63 8.82 18.66 9.06 18.66 9.31 18.66 10.3 18.27 11.26 17.56 11.97 16.86 12.67 15.9 13.07 14.9 13.07 13.9 13.07 12.95 12.67 12.24 11.97 11.54 11.26 11.14 10.3 11.14 9.31zm.75.0C11.89 9.17 11.9 9.04 11.93 8.91 11.97 8.7 12.02 8.5 12.09 8.29 12.14 8.13 12.2 7.97 12.26 7.82 12.35 7.61 12.44 7.41 12.53 7.21 12.81 6.64 13.11 6.09 13.44 5.55 13.91 4.79 14.39 4.05 14.9 3.32 15.24 3.81 15.58 4.31 15.9 4.81 16.2 5.27 16.48 5.74 16.75 6.21 16.91 6.51 17.07 6.81 17.22 7.11 17.33 7.33 17.43 7.56 17.53 7.79 17.66 8.11 17.76 8.43 17.85 8.76 17.89 8.94 17.91 9.12 17.91 9.31 17.91 10.11 17.6 10.87 17.03 11.44 16.47 12 15.7 12.32 14.9 12.32 14.1 12.32 13.34 12 12.77 11.44 12.21 10.87 11.89 10.11 11.89 9.31z" fill-rule="evenodd" fill="rgb(79,75,166)"/><path d="M15.281 9.27V8.172C15.281 7.965 15.113 7.797 14.906 7.797v0C14.699 7.797 14.531 7.965 14.531 8.172V9.27H13.434C13.227 9.27 13.059 9.438 13.059 9.645v0C13.059 9.851 13.227 10.02 13.434 10.02H14.531V11.117C14.531 11.324 14.699 11.492 14.906 11.492v0C15.113 11.492 15.281 11.324 15.281 11.117V10.02H16.379C16.586 10.02 16.754 9.851 16.754 9.645v0C16.754 9.438 16.586 9.27 16.379 9.27H15.281z" fill="rgb(79,75,166)"/><path d="M5.189 23.668H5.19C5.189 23.668 5.189 23.668 5.189 23.667c0 0 0 0 0-.0010000000000012221C5.068 23.415 5.001 23.134 5.001 22.838v0C5.001 22.011 5.525 21.305 6.259 21.035v0C6.317 21.011 6.358 20.954 6.358 20.887 6.358 20.799 6.286 20.727 6.198 20.727 6.181 20.727 6.164 20.73 6.149 20.735v0C5.292 21.049 4.681 21.873 4.681 22.838v0C4.681 23.188 4.761 23.52 4.905 23.815L4.906 23.814C4.929 23.874 4.987 23.916 5.055 23.916 5.144 23.916 5.215 23.845 5.215 23.756 5.215 23.724 5.206 23.694 5.189 23.668z" fill="rgb(79,75,166)"/><circle vector-effect="non-scaling-stroke" cx="6.831250066110114" cy="20.665208876594964" r=".16000000155811644" fill="rgb(79,75,166)"/></g></svg>