<svg id="Layer_1" xmlns="http://www.w3.org/2000/svg" xmlns:xlink="http://www.w3.org/1999/xlink" viewBox="0 0 501.995 501.995" style="fill:#4f4ba6;enable-background:new 0 0 501.995 501.995"><g><g><g><path d="M466.789 283.248c-.171-.033-.342-.063-.515-.087l-70.498-10.088c-.283-.041-.568-.069-.854-.084-10.81-.61-21.762-.475-32.555.4-.152.012-.305.028-.457.048l-152.112 19.407c-19.198 1.22-34.375 16.2-36.398 34.776L50.632 289.796c-20.61-6.35-42.545 5.253-48.894 25.862-6.35 20.61 5.252 42.544 25.862 48.895.035.011.069.021.104.031l116.349 34.468c20.898 6.191 42.279 9.3 63.839 9.3 8.601.0 17.231-.495 25.87-1.486l151.139-17.344c.144-.016.288-.036.431-.059 7.924-1.261 15.961-1.258 23.884.01l47.258 7.561c2.141.342 4.267.508 6.368.508 19.113-.002 35.951-13.72 39.028-32.95.083-.522.125-1.051.125-1.58v-40.84C501.996 302.736 488.176 287.457 466.789 283.248zM481.998 362.13h-.002c-1.988 9.907-12.063 16.801-22.363 15.156l-47.257-7.561c-9.939-1.59-20.02-1.606-29.965-.048l-150.929 17.32c-27.605 3.167-55.108.771-81.748-7.121l-116.29-34.451c-10.042-3.122-15.69-13.822-12.592-23.879 1.502-4.878 4.815-8.88 9.328-11.267 4.513-2.387 9.687-2.874 14.564-1.371l133.085 41.002c6.634 12.243 19.58 20.492 34.373 20.492.702.0 1.407-.019 2.116-.057.244-.013.486-.035.728-.066l61.135-7.774c5.479-.696 9.355-5.703 8.659-11.181-.697-5.479-5.71-9.361-11.181-8.659l-60.736 7.723c-10.241.378-18.884-7.408-19.722-17.518-.548-10.512 7.549-19.517 18.063-20.08.245-.013.488-.035.731-.066l152.219-19.42c9.669-.774 19.477-.898 29.162-.373l69.794 9.987c11.795 2.399 18.828 9.583 18.828 19.253V362.13z"/><path d="M314.417 337.484l-13.586 1.728c-5.479.696-9.355 5.703-8.659 11.181.642 5.051 4.946 8.74 9.907 8.74.42.0.846-.026 1.274-.081l13.586-1.728c5.479-.696 9.355-5.703 8.659-11.181C324.902 340.665 319.892 336.783 314.417 337.484z"/><path d="M215.08 244.95c11.604-.152 23.604-.309 35.916-.309 12.312.0 24.312.157 35.916.309 10.791.141 21.163.277 31.056.277 44.72.0 79.505-2.775 97.334-20.372 8.091-7.986 12.194-18.488 12.194-31.213.0-27.884-19.182-53.61-54.011-72.437-32.883-17.774-76.384-27.563-122.489-27.563-46.105.0-89.606 9.789-122.489 27.563-34.83 18.827-54.011 44.552-54.011 72.437.0 12.726 4.103 23.227 12.194 31.213C108.463 246.344 155.511 245.728 215.08 244.95zM183.496 121.76v32.882c0 5.523 4.477 10 10 10 5.523.0 10-4.477 10-10v-37.069c12.757-2.156 26.175-3.48 40-3.833v17.902c0 5.523 4.477 10 10 10 5.523.0 10-4.477 10-10v-17.73c13.505.576 26.586 2.076 39 4.369v36.361c0 5.523 4.477 10 10 10s10-4.477 10-10v-31.834c50.013 13.529 85 40.537 85 70.834.0 7.379-1.984 12.775-6.243 16.979-15.822 15.616-61.357 15.022-114.079 14.332-11.669-.153-23.735-.311-36.178-.311s-24.509.158-36.178.311c-52.72.689-98.257 1.285-114.079-14.332-4.259-4.204-6.243-9.6-6.243-16.979C94.496 162.543 131.356 134.907 183.496 121.76z"/><path d="M253.496 178.641c5.523.0 10-4.477 10-10v-5c0-5.523-4.477-10-10-10s-10 4.477-10 10v5C243.496 174.164 247.973 178.641 253.496 178.641z"/></g></g></g><g/><g/><g/><g/><g/><g/><g/><g/><g/><g/><g/><g/><g/><g/><g/></svg>